<?xml version="1.0" encoding="UTF-8" standalone="no"?>
<svg width="14px" height="12px" viewBox="0 0 14 12" version="1.1" xmlns="http://www.w3.org/2000/svg" xmlns:xlink="http://www.w3.org/1999/xlink" xmlns:sketch="http://www.bohemiancoding.com/sketch/ns">
    <title>Slice 1</title>
    <description>Created with Sketch (http://www.bohemiancoding.com/sketch)</description>
    <defs></defs>
    <g id="Page 1" stroke="none" stroke-width="1" fill="none" fill-rule="evenodd">
        <g id="Layer_1" fill="#8DBA45">
            <path d="M8.422,6.52 C8.652,6.294 8.732,5.722 8.943,5.516 C9.242,5.224 9.565,4.865 9.658,4.416 C9.781,3.82 9.531,3.744 9.531,3.538 C9.531,3.107 9.527,2.397 9.392,1.937 C9.385,1.33 9.286,1.066 9.076,0.838 C8.879,0.625 8.394,0.676 8.142,0.535 C7.751,0.318 7.429,0.235 7.018,0.225 L7.018,0.222 C7.006,0.222 6.994,0.223 6.982,0.223 C6.962,0.223 6.943,0.222 6.922,0.222 L6.923,0.226 C5.922,0.264 4.858,0.895 4.492,1.909 C4.356,2.285 4.408,3.107 4.408,3.538 C4.408,3.744 4.158,3.82 4.281,4.416 C4.373,4.865 4.697,5.224 4.996,5.516 C5.207,5.722 5.287,6.294 5.517,6.52 C5.567,6.853 5.573,6.758 5.571,7.063 C5.57,7.166 5.574,7.325 5.409,7.483 C5.098,7.78 4.384,8.426 3.798,8.678 C3.025,9.01 1.77,9.54 1.48,9.689 C1.191,9.838 0.426,10.243 0.426,10.501 L0.426,11.71 L6.898,11.71 L7.046,11.71 L13.518,11.71 L13.518,10.501 C13.518,10.243 12.753,9.838 12.464,9.689 C12.175,9.54 10.919,9.009 10.146,8.678 C9.576,8.433 8.884,7.814 8.56,7.507 C8.451,7.403 8.374,7.295 8.373,7.031 C8.372,6.725 8.379,6.842 8.427,6.52" id="Shape"></path>
        </g>
    </g>
</svg>