<?xml version="1.0" encoding="UTF-8" standalone="no"?>
<svg width="11px" height="10px" viewBox="0 0 11 10" version="1.1" xmlns="http://www.w3.org/2000/svg" xmlns:xlink="http://www.w3.org/1999/xlink" xmlns:sketch="http://www.bohemiancoding.com/sketch/ns">
    <title>Slice 1</title>
    <description>Created with Sketch (http://www.bohemiancoding.com/sketch)</description>
    <defs></defs>
    <g id="Page 1" stroke="none" stroke-width="1" fill="none" fill-rule="evenodd">
        <g id="Layer_1" fill="#EA4C89">
            <path d="M5.4,1.264 C8.301,1.264 10.653,2.589 10.653,4.223 C10.653,5.857 5.4,9.45 5.4,9.45 C5.4,9.45 0.147,5.857 0.147,4.222 C0.147,2.588 2.499,1.264 5.4,1.264 L5.4,1.264 Z M5.4,1.264" id="Shape"></path>
            <path d="M3.286,0 C5.09,0 6.553,1.512 6.553,3.377 C6.553,5.242 5.09,6.754 3.286,6.754 C1.481,6.754 0.019,5.242 0.019,3.377 C0.018,1.512 1.481,0 3.286,0 L3.286,0 Z M3.286,0" id="Shape"></path>
            <path d="M7.514,0 C9.318,0 10.781,1.512 10.781,3.377 C10.781,5.242 9.318,6.754 7.514,6.754 C5.709,6.754 4.247,5.242 4.247,3.377 C4.247,1.512 5.71,0 7.514,0 L7.514,0 Z M7.514,0" id="Shape"></path>
        </g>
    </g>
</svg>